<svg xmlns="http://www.w3.org/2000/svg" width="157" height="136" viewBox="0 0 157 136">
    <g fill="none" fill-rule="evenodd">
        <g transform="translate(1)">
            <circle cx="41" cy="8" r="4" fill="#FFD600"/>
            <circle cx="113" cy="125" r="3" fill="#E1E1E1"/>
            <circle cx="4" cy="66" r="4" fill="#FFF" stroke="#E1E1E1" stroke-linecap="round" stroke-linejoin="round" stroke-width="2"/>
            <circle cx="127" cy="10" r="3" fill="#FFF" stroke="#E1E1E1" stroke-linecap="round" stroke-linejoin="round" stroke-width="2"/>
            <circle cx="29" cy="2" r="2" fill="#E1E1E1"/>
            <path fill="#FFD600" d="M148 74.01a1 1 0 1 1 2 0v1.98a1 1 0 1 1-2 0v-1.98zm4.529 1.047a1 1 0 1 1 1.414 1.414l-1.4 1.401a1 1 0 1 1-1.414-1.414l1.4-1.401zM154.99 79a1 1 0 1 1 0 2h-1.982a1 1 0 1 1 0-2h1.982zm-1.048 4.529a1 1 0 1 1-1.414 1.414l-1.401-1.4a1 1 0 1 1 1.414-1.414l1.401 1.4zM150 85.99a1 1 0 1 1-2 0v-1.982a1 1 0 1 1 2 0v1.982zm-4.529-1.048a1 1 0 1 1-1.414-1.414l1.4-1.401a1 1 0 1 1 1.414 1.414l-1.4 1.401zM143.01 81a1 1 0 1 1 0-2h1.982a1 1 0 1 1 0 2h-1.982zm1.048-4.529a1 1 0 1 1 1.414-1.414l1.401 1.4a1 1 0 1 1-1.414 1.414l-1.401-1.4z"/>
            <circle cx="103" cy="134" r="2" fill="#FFD600"/>
        </g>
        <path fill="#FFF" stroke="#C8C8C8" stroke-width="2" d="M43 106V30h60a6 6 0 1 1 12 0v76"/>
        <path fill="#EDEDED" d="M114 30h-10a5 5 0 0 1 10 0zm-70 0h70v1H44v-1z"/>
        <path fill="#FFF" stroke="#C8C8C8" stroke-width="2" d="M103 30H31a6 6 0 0 1 6-6h72a6 6 0 0 0-6 6zM43 106a6 6 0 0 0 6 6h72a6 6 0 0 1-6-6"/>
        <path fill="#F3F3F3" stroke="#C8C8C8" stroke-width="2" d="M121 112a6 6 0 0 0 6-6h-12a6 6 0 0 0 6 6z"/>
        <g fill-rule="nonzero" stroke="#C8C8C8" stroke-width="2">
            <path d="M87.79 73.865V60.674l-15.718 3.193v16.718c.02 2.119-1.378 4.209-3.746 5.448-3.285 1.714-7.122 1.066-8.67-1.364-1.59-2.496-.242-5.96 3.091-7.703 1.677-.876 3.496-1.152 5.113-.85V55.316a2 2 0 0 1 1.601-1.96l20.14-4.093A2 2 0 0 1 92 51.224V78.34c.017 2.117-1.382 4.205-3.747 5.442-3.285 1.714-7.122 1.065-8.667-1.364-1.59-2.496-.243-5.96 3.091-7.703 1.677-.876 3.495-1.152 5.113-.85z"/>
        </g>
    </g>
</svg>
