<svg xmlns="http://www.w3.org/2000/svg" xmlns:xlink="http://www.w3.org/1999/xlink" width="157" height="136" viewBox="0 0 157 136">
    <defs>
        <path id="a" d="M32 8h40.998A2.996 2.996 0 0 1 76 11.003v41.994A3.001 3.001 0 0 1 72.998 56H7.002A2.996 2.996 0 0 1 4 52.997V7.007C4 5.347 5.35 4 6.996 4h22.008A3 3 0 0 1 32 7.007V8z"/>
    </defs>
    <g fill="none" fill-rule="evenodd">
        <g transform="translate(1)">
            <circle cx="41" cy="8" r="4" fill="#FFD600"/>
            <circle cx="113" cy="125" r="3" fill="#E1E1E1"/>
            <circle cx="4" cy="66" r="4" fill="#FFF" stroke="#E1E1E1" stroke-linecap="round" stroke-linejoin="round" stroke-width="2"/>
            <circle cx="127" cy="10" r="3" fill="#FFF" stroke="#E1E1E1" stroke-linecap="round" stroke-linejoin="round" stroke-width="2"/>
            <circle cx="29" cy="2" r="2" fill="#E1E1E1"/>
            <path fill="#FFD600" d="M148 74.01a1 1 0 1 1 2 0v1.98a1 1 0 1 1-2 0v-1.98zm4.529 1.047a1 1 0 1 1 1.414 1.414l-1.4 1.401a1 1 0 1 1-1.414-1.414l1.4-1.401zM154.99 79a1 1 0 1 1 0 2h-1.982a1 1 0 1 1 0-2h1.982zm-1.048 4.529a1 1 0 1 1-1.414 1.414l-1.401-1.4a1 1 0 1 1 1.414-1.414l1.401 1.4zM150 85.99a1 1 0 1 1-2 0v-1.982a1 1 0 1 1 2 0v1.982zm-4.529-1.048a1 1 0 1 1-1.414-1.414l1.4-1.401a1 1 0 1 1 1.414 1.414l-1.4 1.401zM143.01 81a1 1 0 1 1 0-2h1.982a1 1 0 1 1 0 2h-1.982zm1.048-4.529a1 1 0 1 1 1.414-1.414l1.401 1.4a1 1 0 1 1-1.414 1.414l-1.401-1.4z"/>
            <circle cx="103" cy="134" r="2" fill="#FFD600"/>
        </g>
        <g transform="rotate(-15 179.518 -53.64)">
            <rect width="72" height="52" fill="#FFF" stroke="#C8C8C8" stroke-width="2" rx="3"/>
            <rect width="64" height="32" x="4" y="7" stroke="#C8C8C8" stroke-width="2" rx="2"/>
            <rect width="23" height="2" x="3" y="43" fill="#C8C8C8" rx="1"/>
            <rect width="8" height="2" x="3" y="46" fill="#C8C8C8" rx="1"/>
        </g>
        <g transform="rotate(15 -34.132 268.997)">
            <rect width="72" height="52" fill="#FFF" stroke="#C8C8C8" stroke-width="2" rx="3"/>
            <rect width="64" height="32" x="4" y="7" stroke="#C8C8C8" stroke-width="2" rx="2"/>
            <rect width="23" height="2" x="3" y="43" fill="#E1E1E1" rx="1"/>
            <rect width="8" height="2" x="3" y="46" fill="#E1E1E1" rx="1"/>
            <circle cx="35.5" cy="23.5" r="9.5" stroke="#C8C8C8" stroke-width="2"/>
            <path fill="#C8C8C8" d="M33.5 21.298c0-.553.382-.781.868-.501L38.187 23c.479.276.486.72 0 1l-3.82 2.203c-.478.277-.867.06-.867-.5v-4.405z"/>
        </g>
        <g stroke-linecap="round" transform="translate(42 54)">
            <use fill="#EDEDED" xlink:href="#a"/>
            <use fill="#F6F6F6" stroke="#C8C8C8" stroke-width="2" xlink:href="#a"/>
        </g>
        <path fill="#FFF" stroke="#C8C8C8" stroke-width="2" d="M70 58h40.998A2.996 2.996 0 0 1 114 61.003v41.994a3.001 3.001 0 0 1-3.002 3.003H45.002A2.996 2.996 0 0 1 42 102.997V57.007C42 55.347 43.35 54 44.996 54h22.008A3 3 0 0 1 70 57.007V58z"/>
        <path fill="#C8C8C8" d="M76.464 80.879l-2.826 2.826a.999.999 0 1 0 1.414 1.414l2.827-2.826 2.826 2.827a.999.999 0 1 0 1.414-1.414l-2.826-2.827 2.827-2.827a.999.999 0 1 0-1.414-1.414l-2.827 2.826-2.827-2.826a.999.999 0 1 0-1.414 1.414l2.826 2.827z"/>
        <path stroke="#C8C8C8" stroke-linecap="round" stroke-linejoin="round" stroke-width="2" d="M88.543 86.387c2.335-4.517 1.608-10.206-2.179-13.994-4.686-4.686-12.284-4.686-16.97 0-4.687 4.687-4.687 12.285 0 16.971 4.686 4.686 12.284 4.686 16.97 0l4.026 4.026"/>
    </g>
</svg>
