<svg xmlns="http://www.w3.org/2000/svg" width="156" height="136" viewBox="0 0 156 136">
    <g fill="none" fill-rule="evenodd">
        <g transform="translate(1)">
            <circle cx="41" cy="8" r="4" fill="#FFD600"/>
            <circle cx="113" cy="125" r="3" fill="#E1E1E1"/>
            <circle cx="4" cy="66" r="4" fill="#FFF" stroke="#E1E1E1" stroke-linecap="round" stroke-linejoin="round" stroke-width="2"/>
            <circle cx="127" cy="10" r="3" fill="#FFF" stroke="#E1E1E1" stroke-linecap="round" stroke-linejoin="round" stroke-width="2"/>
            <circle cx="29" cy="2" r="2" fill="#E1E1E1"/>
            <path fill="#FFD600" d="M147 74.01a1 1 0 1 1 2 0v1.98a1 1 0 1 1-2 0v-1.98zm4.529 1.047a1 1 0 1 1 1.414 1.414l-1.4 1.401a1 1 0 1 1-1.414-1.414l1.4-1.401zM153.99 79a1 1 0 1 1 0 2h-1.982a1 1 0 1 1 0-2h1.982zm-1.048 4.529a1 1 0 1 1-1.414 1.414l-1.401-1.4a1 1 0 1 1 1.414-1.414l1.401 1.4zM149 85.99a1 1 0 1 1-2 0v-1.982a1 1 0 1 1 2 0v1.982zm-4.529-1.048a1 1 0 1 1-1.414-1.414l1.4-1.401a1 1 0 1 1 1.414 1.414l-1.4 1.401zM142.01 81a1 1 0 1 1 0-2h1.982a1 1 0 1 1 0 2h-1.982zm1.048-4.529a1 1 0 1 1 1.414-1.414l1.401 1.4a1 1 0 1 1-1.414 1.414l-1.401-1.4z"/>
            <circle cx="103" cy="134" r="2" fill="#FFD600"/>
        </g>
        <g transform="rotate(-15 187.614 -56.438)">
            <rect width="72" height="52" fill="#FFF" stroke="#C8C8C8" stroke-width="2" rx="3"/>
            <rect width="64" height="32" x="4" y="7" stroke="#C8C8C8" stroke-width="2" rx="2"/>
            <path fill="#E1E1E1" d="M3 44c0-.552.439-1 1.003-1h20.994A1 1 0 0 1 26 44c0 .552-.439 1-1.003 1H4.003A1 1 0 0 1 3 44zm0 3c0-.552.453-1 .997-1h6.006c.55 0 .997.444.997 1 0 .552-.453 1-.997 1H3.997A.996.996 0 0 1 3 47z"/>
        </g>
        <g transform="rotate(15 -42.228 266.2)">
            <rect width="72" height="52" fill="#FFF" stroke="#C8C8C8" stroke-width="2" rx="3"/>
            <rect width="64" height="32" x="4" y="7" stroke="#C8C8C8" stroke-width="2" rx="2"/>
            <path fill="#E1E1E1" d="M3 44c0-.552.439-1 1.003-1h20.994A1 1 0 0 1 26 44c0 .552-.439 1-1.003 1H4.003A1 1 0 0 1 3 44zm0 3c0-.552.453-1 .997-1h6.006c.55 0 .997.444.997 1 0 .552-.453 1-.997 1H3.997A.996.996 0 0 1 3 47z"/>
            <circle cx="35.5" cy="23.5" r="9.5" stroke="#C8C8C8" stroke-width="2"/>
            <path fill="#C8C8C8" d="M33.5 21.298c0-.553.382-.781.868-.501L38.187 23c.479.276.486.72 0 1l-3.82 2.203c-.478.277-.867.06-.867-.5v-4.405z"/>
        </g>
        <path fill="#FFF" stroke="#C8C8C8" stroke-linecap="round" stroke-linejoin="round" stroke-width="2" d="M74 105H58c-9.389 0-17-7.611-17-17s7.611-17 17-17c.797 0 1.582.055 2.35.161C62.154 61.396 70.713 54 81 54c11.598 0 21 9.402 21 21 .654.045 1.322 0 2 0 8.284 0 15 6.716 15 15 0 8.284-6.716 15-15 15H88"/>
        <path stroke="#C8C8C8" stroke-linecap="round" stroke-linejoin="round" stroke-width="2" d="M81 62c-6.008 0-11.063 4.075-12.554 9.612"/>
        <path fill="#BABABA" d="M74.693 95.757a.985.985 0 0 1-1.403.002 1.003 1.003 0 0 1 .002-1.413l7.005-7.052a.983.983 0 0 1 1.403-.002l7.007 7.054c.388.39.392 1.02.002 1.413a.988.988 0 0 1-1.403-.002l-5.3-5.335v18.584a.99.99 0 1 1-1.983 0V90.392l-5.33 5.365z"/>
    </g>
</svg>
